<svg xmlns="http://www.w3.org/2000/svg" viewBox="0 0 1191.402 296.645"><title>shopcom-logo-shop-smart-save-big</title><path d="M91.71,79.45C89.238,62.391,79.384,51.979,64.027,51.979c-20.479,0-25.954,13.459-25.954,23.309,0,10.8,6.815,17.619,21.031,22.92l18.2,6.816c22.916,8.541,33.527,21.985,33.527,39.432,0,23.291-18.572,40.152-46.23,40.152-26.149,0-44.721-13.831-47-42.634H35.8C37.316,157.7,45.282,168.7,65.535,168.7c15.751,0,27.1-10.048,27.1-22.737,0-11.186-9.28-18.393-22.341-23.507l-18.4-7.191c-21.412-8.34-32.018-20.848-32.018-39.414,0-24.831,20.665-39.77,44.345-39.77,23.863,0,42.444,14.176,44.536,43.37Z" transform="translate(-17.598 -36.08)" style="fill:#54565a"/><path d="M228.307,38.338h18.2v144.01h-18.2v-65.2H153.085v65.2H134.9V38.338h18.188V100.1h75.222Z" transform="translate(-17.598 -36.08)" style="fill:#54565a"/><path d="M348.641,36.08c48.883,0,76.346,38.633,76.346,74.257s-27.463,74.271-76.346,74.271c-48.9,0-76.382-38.646-76.382-74.271S299.74,36.08,348.641,36.08Zm0,131.491c29.364,0,57-23.115,57-57.234s-27.64-57.219-57-57.219c-29.382,0-57.049,23.106-57.049,57.219S319.259,167.571,348.641,167.571Z" transform="translate(-17.598 -36.08)" style="fill:#54565a"/><path d="M450.76,38.338h39.79c30.519,0,48.706,23.486,48.706,47.555,0,24.054-18.187,47.368-48.706,47.368H468.93v49.087H450.76Zm36,78.994c21.805,0,34.314-10.609,34.314-31.439s-12.509-31.65-34.314-31.65H468.93v63.089Z" transform="translate(-17.598 -36.08)" style="fill:#54565a"/><path d="M1153.009,43.151h-10.032V39.477h24.92v3.674h-10.05V71.195h-4.838Zm21.677-3.674h7.811l9.364,24.442,9.359-24.442H1209V71.195h-4.8V43.61h-.151l-10.584,27.585h-3.273L1179.666,43.61h-.141V71.195h-4.839Z" transform="translate(-17.598 -36.08)" style="fill:#54565a"/><path d="M768.115,68.727a55.2,55.2,0,0,0-37.131-14.8,57.01,57.01,0,0,0-57.04,57.229c0,33.562,27.667,57.21,57.04,57.21a53.969,53.969,0,0,0,38.449-15.337L781.022,166.1a76.953,76.953,0,0,1-50.038,19.353c-48.866,0-76.353-38.666-76.353-74.294s27.487-74.283,76.353-74.283c19.147,0,37.9,7.778,49.467,18.382Z" transform="translate(-17.598 -36.08)" style="fill:#54565a"/><path d="M873.3,36.876c48.879,0,76.346,38.664,76.346,74.283s-27.467,74.294-76.346,74.294-76.373-38.666-76.373-74.294S824.412,36.876,873.3,36.876Zm0,131.493c29.377,0,57.034-23.11,57.034-57.21,0-34.115-27.657-57.229-57.034-57.229s-57.04,23.114-57.04,57.229C816.256,145.259,843.913,168.369,873.3,168.369Z" transform="translate(-17.598 -36.08)" style="fill:#54565a"/><path d="M1110.724,39.165h18.161V183.151h-18.161V76.476h-.393l-58.168,108.207L993.991,76.476h-.385V183.151H975.414V39.165h18.192l58.557,108.767Z" transform="translate(-17.598 -36.08)" style="fill:#54565a"/><path d="M624.661,108.364a28.432,28.432,0,1,1-28.4-28.4A28.411,28.411,0,0,1,624.661,108.364Z" transform="translate(-17.598 -36.08)" style="fill:#0091b3"/><path d="M26.935,296.659a14.835,14.835,0,0,0,12.584,6.37c5.294,0,11.831-3.362,11.831-9.9,0-13.676-29.28-5.21-29.28-28.37,0-6.953,5.869-16.613,20.138-16.613,6.462,0,12.667,1.354,17.113,6.8l-6.546,5.962a12.447,12.447,0,0,0-10.567-5.2c-8.895,0-11.58,5.36-11.58,9.049,0,15.021,29.29,6.051,29.29,27.441,0,11.5-9.236,18.382-20.643,18.382-7.643,0-14.936-2.609-18.975-8.227Z" transform="translate(-17.598 -36.08)" style="fill:#54565a"/><path d="M69.887,245.635h7.555V275.42h.168c1.924-4.184,6.957-7.121,13.088-7.121,7.718,0,14.432,4.6,14.432,15.18v25.582H97.58V285.575c0-7.466-4.282-10.235-9.063-10.235-6.294,0-11.075,4.025-11.075,13.261v20.46H69.887Z" transform="translate(-17.598 -36.08)" style="fill:#54565a"/><path d="M135.742,268.3A20.892,20.892,0,1,1,114.6,289.176,20.894,20.894,0,0,1,135.742,268.3Zm0,34.73c8.059,0,13.1-5.8,13.1-13.853s-5.038-13.836-13.1-13.836-13.084,5.786-13.084,13.836S127.7,303.029,135.742,303.029Z" transform="translate(-17.598 -36.08)" style="fill:#54565a"/><path d="M166.363,269.3h7.554V275h.168c2.937-4.281,8.475-6.705,13.849-6.705,12.336,0,20.222,9.138,20.222,20.877,0,11.924-7.97,20.9-20.222,20.9-5.7,0-11.159-2.592-13.849-6.714h-.168v29.36h-7.554Zm7.554,19.878c0,8.058,5.034,13.853,13.088,13.853s13.088-5.8,13.088-13.853-5.034-13.836-13.088-13.836S173.917,281.126,173.917,289.176Z" transform="translate(-17.598 -36.08)" style="fill:#54565a"/><path d="M244.637,296.659a14.835,14.835,0,0,0,12.584,6.37c5.294,0,11.831-3.362,11.831-9.9,0-13.676-29.28-5.21-29.28-28.37,0-6.953,5.869-16.613,20.138-16.613,6.462,0,12.668,1.354,17.122,6.8l-6.555,5.962a12.446,12.446,0,0,0-10.567-5.2c-8.9,0-11.58,5.36-11.58,9.049,0,15.021,29.29,6.051,29.29,27.441,0,11.5-9.235,18.382-20.642,18.382-7.643,0-14.937-2.609-18.971-8.227Z" transform="translate(-17.598 -36.08)" style="fill:#54565a"/><path d="M287.59,269.3h7.05v6.21h.168c.756-2.344,5.617-7.209,12.752-7.209,5.869,0,9.9,2.512,12.42,7.386a14.363,14.363,0,0,1,12.592-7.386c12.243,0,15.095,8.722,15.095,17.612v23.15h-7.55V286.92c0-6.042-1.256-11.58-8.558-11.58s-10.146,4.945-10.146,12v21.725h-7.555v-20.8c0-7.554-1.1-12.924-8.39-12.924-5.459,0-10.324,4.114-10.324,13.084v20.637H287.59Z" transform="translate(-17.598 -36.08)" style="fill:#54565a"/><path d="M359.243,274.164a23.405,23.405,0,0,1,15.764-5.865c11.747,0,16.621,6.369,16.621,13.251v20.311a62.864,62.864,0,0,0,.328,7.2H385.25Q385,306.05,385,303.029h-.168c-3.357,5.122-7.886,7.05-13.933,7.05-7.386,0-13.759-4.193-13.759-11.916,0-10.243,9.814-13.755,21.907-13.755h5.524v-1.681c0-4.114-3.012-8.395-9.479-8.395-5.785,0-8.549,2.441-11.318,4.529Zm21.306,15.781c-7.135,0-15.857,1.256-15.857,7.634,0,4.53,3.357,6.458,8.559,6.458,8.39,0,11.318-6.21,11.318-11.58v-2.512Z" transform="translate(-17.598 -36.08)" style="fill:#54565a"/><path d="M402.606,269.3h7.559v6.122h.168c1.924-4.184,6.958-7.121,11.916-7.121a10.5,10.5,0,0,1,3.348.5l-.336,8.138a14.309,14.309,0,0,0-3.689-.592c-7.386,0-11.407,4.025-11.407,12.747v19.965h-7.559Z" transform="translate(-17.598 -36.08)" style="fill:#54565a"/><path d="M454.962,275.844H444.138v18.038c0,4.449,0,9.147,5.7,9.147a10.753,10.753,0,0,0,5.374-1.168v6.882c-1.765,1-5.29,1.336-6.8,1.336-11.664,0-11.832-7.13-11.832-13.517V275.844h-8.727V269.3h8.727V258.143h7.554V269.3h10.824Z" transform="translate(-17.598 -36.08)" style="fill:#54565a"/><path d="M469.894,320.146h-6.886l5.794-20.638h8.142Z" transform="translate(-17.598 -36.08)" style="fill:#54565a"/><path d="M515.022,296.659a14.85,14.85,0,0,0,12.588,6.37c5.29,0,11.828-3.362,11.828-9.9,0-13.676-29.281-5.21-29.281-28.37,0-6.953,5.878-16.613,20.138-16.613,6.466,0,12.681,1.354,17.126,6.8l-6.559,5.962a12.446,12.446,0,0,0-10.567-5.2c-8.89,0-11.579,5.36-11.579,9.049,0,15.021,29.289,6.051,29.289,27.441,0,11.5-9.235,18.382-20.647,18.382-7.63,0-14.927-2.609-18.957-8.227Z" transform="translate(-17.598 -36.08)" style="fill:#54565a"/><path d="M558.147,274.164a23.445,23.445,0,0,1,15.772-5.865c11.748,0,16.613,6.369,16.613,13.251v20.311a60.918,60.918,0,0,0,.337,7.2h-6.705q-.254-3.011-.253-6.032h-.168c-3.357,5.122-7.886,7.05-13.933,7.05-7.386,0-13.76-4.193-13.76-11.916,0-10.243,9.815-13.755,21.9-13.755h5.533v-1.681c0-4.114-3.012-8.395-9.47-8.395-5.794,0-8.567,2.441-11.336,4.529Zm21.31,15.781c-7.125,0-15.861,1.256-15.861,7.634,0,4.53,3.357,6.458,8.567,6.458,8.391,0,11.319-6.21,11.319-11.58v-2.512Z" transform="translate(-17.598 -36.08)" style="fill:#54565a"/><path d="M596.738,269.3h8.727l11.911,30.457L628.792,269.3h8.054l-15.609,39.763h-8.306Z" transform="translate(-17.598 -36.08)" style="fill:#54565a"/><path d="M649.169,291.962c0,6.953,6.466,11.571,13.43,11.571,4.614,0,7.971-2.345,10.9-5.954l5.71,4.362c-4.2,5.449-9.992,8.138-17.626,8.138-12.581,0-20.463-9.067-20.463-20.9,0-11.907,8.634-20.877,20.547-20.877,14.017,0,19.382,10.73,19.382,20.974v2.689ZM673,285.911c-.168-6.616-3.861-11.579-11.487-11.579-7.468,0-12.342,6.3-12.342,11.579Z" transform="translate(-17.598 -36.08)" style="fill:#54565a"/><path d="M715.358,249.669H736c10.319,0,18.037,4.777,18.037,14.852,0,6.794-4.193,11.076-10.239,13.084v.168c7.134.5,12.845,6.8,12.845,14.773,0,10.651-9.311,16.515-20.9,16.515h-20.39Zm8.054,24.663h11c6.131,0,11.08-2.424,11.08-8.9,0-4.689-2.941-8.723-9.394-8.723H723.412Zm0,27.688h11.831c4.866,0,12.845-1.681,12.845-10.058,0-7.05-4.954-10.58-12.761-10.58H723.412Z" transform="translate(-17.598 -36.08)" style="fill:#54565a"/><path d="M770.645,249.5a5.538,5.538,0,1,1-5.533,5.529A5.584,5.584,0,0,1,770.645,249.5Zm-3.777,19.8h7.555v39.763h-7.555Z" transform="translate(-17.598 -36.08)" style="fill:#54565a"/><path d="M826.269,308.743c0,12-8.726,20.47-21.73,20.47-7.55,0-13.848-1.937-19.466-7.139l5.118-6.378c3.95,4.193,8.4,6.467,14.185,6.467,11.243,0,14.339-7.051,14.339-13.765v-5.874h-.239c-2.857,4.786-8.315,7.051-13.769,7.051-11.663,0-20.3-8.811-20.218-20.4,0-11.739,7.887-20.877,20.218-20.877,5.37,0,10.912,2.424,13.84,6.705h.168V269.3h7.554Zm-33.725-19.567c0,8.058,5.029,13.348,13.088,13.348s13.083-5.29,13.083-13.348-5.029-13.836-13.083-13.836S792.544,281.126,792.544,289.176Z" transform="translate(-17.598 -36.08)" style="fill:#54565a"/><path d="M843.652,250.9H832.5v-4.4h27.016v4.4H848.349v30.236h-4.7Z" transform="translate(-17.598 -36.08)" style="fill:#54565a"/><path d="M864.148,246.5h6.993l11.009,26.22h.2l10.912-26.22h6.988v34.632h-4.688V252.668h-.1l-11.7,28.466h-3.122l-11.69-28.466h-.1v28.466h-4.7Z" transform="translate(-17.598 -36.08)" style="fill:#54565a"/></svg>